<svg viewBox="-0.3352713178295327 0 909.6705426356591 1286" version="1.1" xmlns="http://www.w3.org/2000/svg" xmlns:xlink="http://www.w3.org/1999/xlink" width="100%" height="100%" ><rect id="svgEditorBackground" x="0" y="0" width="909" height="1286" style="fill: none; stroke: none;"/>
<defs>
<style type="text/css"><![CDATA[
.g6_1{
fill: none;
stroke: #000000;
stroke-width: 1;
stroke-linecap: round;
stroke-linejoin: miter;
}
.g2_1{
fill: none;
stroke: #000000;
stroke-width: 2;
stroke-linecap: round;
stroke-linejoin: round;
}
.g3_1{
fill: #FFFFFF;
}
.g4_1{
fill: none;
stroke: #000000;
stroke-width: 2;
stroke-linecap: round;
stroke-linejoin: miter;
}
.g5_1{
}
.g1_1{
fill: #C0C0C0;
}
]]></style>
</defs>
<path d="M27,171l426,0l0,-16L27,155l0,16Z" class="g1_1"/>
<path d="M452,171l429,0l0,-16l-429,0l0,16Z" class="g1_1"/>
<path d="M27,763l855,0l0,490l-855,0L27,763" class="g2_1"/>
<path d="M27,154l855,0l0,485L27,639L27,154" class="g2_1"/>
<path fill-rule="evenodd" d="M27,155l426,0l0,-55L27,100l0,55Z" class="g3_1"/>
<path d="M27,155l426,0l0,-55L27,100l0,55Z" class="g4_1"/>





































<image x="56" y="14" width="230" height="86" xlink:href="1.png"/>
<image x="474" y="14" width="330" height="126" id="bcl" xlink:href="barcodeL.png"/>
<path d="M237.5,100.5l0,57" class="g6_1"/>
<path d="M237.5,100.5l0,57" class="g6_1"/>
<path d="M237.5,100.5l0,57" class="g6_1"/>
<path d="M237.5,100.5l0,57" class="g6_1"/>
<path d="M237.5,100.5l0,57" class="g6_1"/>
<path d="M238.5,100.5l0,57" class="g6_1"/>
<path d="M27.5,124.5l426,0" class="g6_1"/>
<path d="M27.5,125.5l426,0" class="g6_1"/>
<path d="M27.5,125.5l426,0" class="g6_1"/>
<path d="M27.5,125.5l426,0" class="g6_1"/>
<path d="M27.5,125.5l426,0" class="g6_1"/>
<path d="M27.5,125.5l426,0" class="g6_1"/>
<path d="M27.5,213.5l685,0" class="g6_1"/>
<path d="M27.5,213.5l685,0" class="g6_1"/>
<path d="M27.5,213.5l685,0" class="g6_1"/>
<path d="M27.5,213.5l685,0" class="g6_1"/>
<path d="M27.5,214.5l685,0" class="g6_1"/>
<path d="M27.5,214.5l685,0" class="g6_1"/>
<path d="M712.5,168.5l0,144" class="g6_1"/>
<path d="M712.5,168.5l0,144" class="g6_1"/>
<path d="M712.5,168.5l0,144" class="g6_1"/>
<path d="M713.5,168.5l0,144" class="g6_1"/>
<path d="M713.5,168.5l0,144" class="g6_1"/>
<path d="M713.5,168.5l0,144" class="g6_1"/>
<path d="M27.5,276.5l424,0" class="g6_1"/>
<path d="M27.5,276.5l424,0" class="g6_1"/>
<path d="M27.5,276.5l424,0" class="g6_1"/>
<path d="M27.5,276.5l424,0" class="g6_1"/>
<path d="M27.5,276.5l424,0" class="g6_1"/>
<path d="M27.5,277.5l424,0" class="g6_1"/>
<path d="M27.5,311.5l854,0" class="g6_1"/>
<path d="M27.5,311.5l854,0" class="g6_1"/>
<path d="M27.5,312.5l854,0" class="g6_1"/>
<path d="M27.5,312.5l854,0" class="g6_1"/>
<path d="M27.5,312.5l854,0" class="g6_1"/>
<path d="M27.5,312.5l854,0" class="g6_1"/>
<path d="M27.5,437.5l854,0" class="g6_1"/>
<path d="M27.5,437.5l854,0" class="g6_1"/>
<path d="M27.5,438.5l854,0" class="g6_1"/>
<path d="M27.5,438.5l854,0" class="g6_1"/>
<path d="M27.5,438.5l854,0" class="g6_1"/>
<path d="M27.5,438.5l854,0" class="g6_1"/>
<path d="M27.5,482.5l854,0" class="g6_1"/>
<path d="M27.5,482.5l854,0" class="g6_1"/>
<path d="M27.5,482.5l854,0" class="g6_1"/>
<path d="M27.5,482.5l854,0" class="g6_1"/>
<path d="M27.5,483.5l854,0" class="g6_1"/>
<path d="M27.5,483.5l854,0" class="g6_1"/>
<path d="M238.5,437.5l0,201" class="g6_1"/>
<path d="M238.5,437.5l0,201" class="g6_1"/>
<path d="M238.5,437.5l0,201" class="g6_1"/>
<path d="M238.5,437.5l0,201" class="g6_1"/>
<path d="M239.5,437.5l0,201" class="g6_1"/>
<path d="M239.5,437.5l0,201" class="g6_1"/>
<path d="M665.5,438.5l0,200" class="g6_1"/>
<path d="M665.5,438.5l0,200" class="g6_1"/>
<path d="M666.5,438.5l0,200" class="g6_1"/>
<path d="M666.5,438.5l0,200" class="g6_1"/>
<path d="M666.5,438.5l0,200" class="g6_1"/>
<path d="M666.5,438.5l0,200" class="g6_1"/>
<path d="M27.5,582.5l854,0" class="g6_1"/>
<path d="M27.5,582.5l854,0" class="g6_1"/>
<path d="M27.5,582.5l854,0" class="g6_1"/>
<path d="M27.5,582.5l854,0" class="g6_1"/>
<path d="M27.5,582.5l854,0" class="g6_1"/>
<path d="M27.5,583.5l854,0" class="g6_1"/>
<path d="M27.5,169.5l854,0" class="g6_1"/>
<path d="M27.5,169.5l854,0" class="g6_1"/>
<path d="M27.5,170.5l854,0" class="g6_1"/>
<path d="M27.5,170.5l854,0" class="g6_1"/>
<path d="M27.5,170.5l854,0" class="g6_1"/>
<path d="M27.5,170.5l854,0" class="g6_1"/>
<path d="M27.5,526.5l854,0" class="g6_1"/>
<path d="M27.5,526.5l854,0" class="g6_1"/>
<path d="M27.5,526.5l854,0" class="g6_1"/>
<path d="M27.5,526.5l854,0" class="g6_1"/>
<path d="M27.5,526.5l854,0" class="g6_1"/>
<path d="M27.5,526.5l854,0" class="g6_1"/>
<path d="M27.5,540.5l854,0" class="g6_1"/>
<path d="M27.5,541.5l854,0" class="g6_1"/>
<path d="M27.5,541.5l854,0" class="g6_1"/>
<path d="M27.5,541.5l854,0" class="g6_1"/>
<path d="M27.5,541.5l854,0" class="g6_1"/>
<path d="M27.5,541.5l854,0" class="g6_1"/>
<path d="M27.5,597.5l854,0" class="g6_1"/>
<path d="M27.5,597.5l854,0" class="g6_1"/>
<path d="M27.5,597.5l854,0" class="g6_1"/>
<path d="M27.5,597.5l854,0" class="g6_1"/>
<path d="M27.5,597.5l854,0" class="g6_1"/>
<path d="M27.5,597.5l854,0" class="g6_1"/>
<path d="M452.5,157.5l0,481" class="g6_1"/>
<path d="M452.5,157.5l0,481" class="g6_1"/>
<path d="M453.5,157.5l0,481" class="g6_1"/>
<path d="M453.5,157.5l0,481" class="g6_1"/>
<path d="M453.5,157.5l0,481" class="g6_1"/>
<path d="M453.5,157.5l0,481" class="g6_1"/>
<path d="M28,598l852,0l0,-16L28,582l0,16Z" class="g1_1"/>
<path d="M28,542l852,0l0,-16L28,526l0,16Z" class="g1_1"/>
<path d="M453,782l427,0l0,-16l-427,0l0,16Z" class="g1_1"/>
<path d="M238.5,784.5l0,44" class="g6_1"/>
<path d="M238.5,784.5l0,44" class="g6_1"/>
<path d="M238.5,784.5l0,44" class="g6_1"/>
<path d="M238.5,784.5l0,44" class="g6_1"/>
<path d="M239.5,784.5l0,44" class="g6_1"/>
<path d="M239.5,784.5l0,44" class="g6_1"/>
<path d="M30.5,805.5l150,0" class="g6_1"/>
<path d="M30.5,847.5l92,0" class="g6_1"/>
<path d="M27.5,828.5l854,0" class="g6_1"/>
<path d="M27.5,828.5l854,0" class="g6_1"/>
<path d="M27.5,828.5l854,0" class="g6_1"/>
<path d="M27.5,829.5l854,0" class="g6_1"/>
<path d="M27.5,829.5l854,0" class="g6_1"/>
<path d="M27.5,829.5l854,0" class="g6_1"/>
<path d="M457.5,805.5l158,0" class="g6_1"/>
<path d="M30.5,932.5l104,0" class="g6_1"/>
<path d="M457.5,847.5l100,0" class="g6_1"/>
<path d="M27.5,874.5l854,0" class="g6_1"/>
<path d="M27.5,874.5l854,0" class="g6_1"/>
<path d="M27.5,874.5l854,0" class="g6_1"/>
<path d="M27.5,874.5l854,0" class="g6_1"/>
<path d="M27.5,875.5l854,0" class="g6_1"/>
<path d="M27.5,875.5l854,0" class="g6_1"/>
<path d="M27.5,956.5l854,0" class="g6_1"/>
<path d="M27.5,957.5l854,0" class="g6_1"/>
<path d="M27.5,957.5l854,0" class="g6_1"/>
<path d="M27.5,957.5l854,0" class="g6_1"/>
<path d="M27.5,957.5l854,0" class="g6_1"/>
<path d="M27.5,957.5l854,0" class="g6_1"/>
<path d="M27.5,1039.5l854,0" class="g6_1"/>
<path d="M27.5,1039.5l854,0" class="g6_1"/>
<path d="M27.5,1039.5l854,0" class="g6_1"/>
<path d="M27.5,1039.5l854,0" class="g6_1"/>
<path d="M27.5,1040.5l854,0" class="g6_1"/>
<path d="M27.5,1040.5l854,0" class="g6_1"/>
<path d="M27.5,1085.5l854,0" class="g6_1"/>
<path d="M27.5,1085.5l854,0" class="g6_1"/>
<path d="M27.5,1085.5l854,0" class="g6_1"/>
<path d="M27.5,1085.5l854,0" class="g6_1"/>
<path d="M27.5,1085.5l854,0" class="g6_1"/>
<path d="M27.5,1086.5l854,0" class="g6_1"/>
<path d="M238.5,1040.5l0,95" class="g6_1"/>
<path d="M238.5,1040.5l0,95" class="g6_1"/>
<path d="M238.5,1040.5l0,95" class="g6_1"/>
<path d="M238.5,1040.5l0,95" class="g6_1"/>
<path d="M239.5,1040.5l0,95" class="g6_1"/>
<path d="M239.5,1040.5l0,95" class="g6_1"/>
<path d="M28,781l425,0l0,-15L28,766l0,15Z" class="g1_1"/>
<path d="M665.5,1040.5l0,148" class="g6_1"/>
<path d="M665.5,1040.5l0,148" class="g6_1"/>
<path d="M666.5,1040.5l0,148" class="g6_1"/>
<path d="M666.5,1040.5l0,148" class="g6_1"/>
<path d="M666.5,1040.5l0,148" class="g6_1"/>
<path d="M666.5,1040.5l0,148" class="g6_1"/>
<path d="M27.5,786.5l854,0" class="g6_1"/>
<path d="M27.5,786.5l854,0" class="g6_1"/>
<path d="M27.5,786.5l854,0" class="g6_1"/>
<path d="M27.5,786.5l854,0" class="g6_1"/>
<path d="M27.5,786.5l854,0" class="g6_1"/>
<path d="M27.5,787.5l854,0" class="g6_1"/>
<path d="M27.5,1131.5l854,0" class="g6_1"/>
<path d="M27.5,1131.5l854,0" class="g6_1"/>
<path d="M27.5,1131.5l854,0" class="g6_1"/>
<path d="M27.5,1131.5l854,0" class="g6_1"/>
<path d="M27.5,1131.5l854,0" class="g6_1"/>
<path d="M27.5,1131.5l854,0" class="g6_1"/>
<path d="M27.5,1144.5l854,0" class="g6_1"/>
<path d="M27.5,1144.5l854,0" class="g6_1"/>
<path d="M27.5,1145.5l854,0" class="g6_1"/>
<path d="M27.5,1145.5l854,0" class="g6_1"/>
<path d="M27.5,1145.5l854,0" class="g6_1"/>
<path d="M27.5,1145.5l854,0" class="g6_1"/>
<path d="M452.5,766.5l0,487" class="g6_1"/>
<path d="M452.5,766.5l0,487" class="g6_1"/>
<path d="M453.5,766.5l0,487" class="g6_1"/>
<path d="M453.5,766.5l0,487" class="g6_1"/>
<path d="M453.5,766.5l0,487" class="g6_1"/>
<path d="M453.5,766.5l0,487" class="g6_1"/>
<path d="M28,1143l852,0l0,-16l-852,0l0,16Z" class="g1_1"/>
<path d="M27.5,1187.5l854,0" class="g6_1"/>
<path d="M27.5,1187.5l854,0" class="g6_1"/>
<path d="M27.5,1187.5l854,0" class="g6_1"/>
<path d="M27.5,1187.5l854,0" class="g6_1"/>
<path d="M27.5,1187.5l854,0" class="g6_1"/>
<path d="M27.5,1188.5l854,0" class="g6_1"/>





































<image x="54" y="667" width="230" height="86" xlink:href="2.png"/>
<image x="474" y="667" width="330" height="120" xlink:href="barcodeS.png"/>























<path d="M238.5,172.5l0,41" class="g6_1"/>
<path d="M238.5,172.5l0,41" class="g6_1"/>
<path d="M238.5,172.5l0,41" class="g6_1"/>
<path d="M238.5,172.5l0,41" class="g6_1"/>
<path d="M239.5,172.5l0,41" class="g6_1"/>
<path d="M239.5,172.5l0,41" class="g6_1"/>
<image x="727" y="172" width="139" height="138" xlink:href="3.png"/>
<path d="M29.5,352.5l854,0" class="g6_1"/>
<path d="M29.5,353.5l854,0" class="g6_1"/>
<path d="M29.5,353.5l854,0" class="g6_1"/>
<path d="M29.5,353.5l854,0" class="g6_1"/>
<path d="M29.5,353.5l854,0" class="g6_1"/>
<path d="M29.5,353.5l854,0" class="g6_1"/>
<path d="M454.5,275.5l258,0" class="g6_1"/>
<path d="M454.5,275.5l258,0" class="g6_1"/>
<path d="M454.5,275.5l258,0" class="g6_1"/>
<path d="M454.5,275.5l258,0" class="g6_1"/>
<path d="M454.5,275.5l258,0" class="g6_1"/>
<path d="M454.5,275.5l258,0" class="g6_1"/>
<path d="M27.5,914.5l854,0" class="g6_1"/>
<path d="M27.5,914.5l854,0" class="g6_1"/>
<path d="M27.5,914.5l854,0" class="g6_1"/>
<path d="M27.5,915.5l854,0" class="g6_1"/>
<path d="M27.5,915.5l854,0" class="g6_1"/>
<path d="M27.5,915.5l854,0" class="g6_1"/>
</svg>